<?xml version="1.0" encoding="UTF-8" standalone="no"?><!DOCTYPE svg PUBLIC "-//W3C//DTD SVG 1.1//EN" "http://www.w3.org/Graphics/SVG/1.1/DTD/svg11.dtd"><svg width="100%" height="100%" viewBox="0 0 2467 780" version="1.1" xmlns="http://www.w3.org/2000/svg" xmlns:xlink="http://www.w3.org/1999/xlink" xml:space="preserve" xmlns:serif="http://www.serif.com/" style="fill-rule:evenodd;clip-rule:evenodd;stroke-linecap:round;stroke-linejoin:round;"><g><path d="M831.048,343.583l-0,140.5l-42.75,0l-0,-140.5l-50,0l-0,-36.5l142.75,0l-0,36.5l-50,0Z" style="fill:#111827;fill-rule:nonzero;"/><path d="M961.029,405.583c0,-6.5 -2.042,-12.083 -6.125,-16.75c-4.083,-4.666 -10.208,-7 -18.375,-7c-4,0 -7.667,0.625 -11,1.875c-3.333,1.25 -6.25,2.959 -8.75,5.125c-2.5,2.167 -4.5,4.709 -6,7.625c-1.5,2.917 -2.333,5.959 -2.5,9.125l52.75,0Zm37.75,15.75l0,5c0,1.667 -0.083,3.25 -0.25,4.75l-90.25,0c0.333,3.5 1.375,6.667 3.125,9.5c1.75,2.834 4,5.292 6.75,7.375c2.75,2.084 5.833,3.709 9.25,4.875c3.417,1.167 6.958,1.75 10.625,1.75c6.5,0 12,-1.208 16.5,-3.625c4.5,-2.416 8.167,-5.541 11,-9.375l28.5,18c-5.833,8.5 -13.542,15.042 -23.125,19.625c-9.583,4.584 -20.708,6.875 -33.375,6.875c-9.333,0 -18.167,-1.458 -26.5,-4.375c-8.333,-2.916 -15.625,-7.166 -21.875,-12.75c-6.25,-5.583 -11.167,-12.458 -14.75,-20.625c-3.583,-8.166 -5.375,-17.5 -5.375,-28c0,-10.166 1.75,-19.375 5.25,-27.625c3.5,-8.25 8.25,-15.25 14.25,-21c6,-5.75 13.083,-10.208 21.25,-13.375c8.167,-3.166 17,-4.75 26.5,-4.75c9.167,0 17.583,1.542 25.25,4.625c7.667,3.084 14.25,7.542 19.75,13.375c5.5,5.834 9.792,12.917 12.875,21.25c3.083,8.334 4.625,17.834 4.625,28.5Z" style="fill:#111827;fill-rule:nonzero;"/><path d="M1105.03,391.083c-1.833,-0.5 -3.625,-0.833 -5.375,-1c-1.75,-0.166 -3.458,-0.25 -5.125,-0.25c-5.5,0 -10.125,1 -13.875,3c-3.75,2 -6.75,4.417 -9,7.25c-2.25,2.834 -3.875,5.917 -4.875,9.25c-1,3.334 -1.5,6.25 -1.5,8.75l0,64l-41,0l0,-124.5l39.5,0l0,18l0.5,0c3.167,-6.333 7.667,-11.5 13.5,-15.5c5.833,-4 12.583,-6 20.25,-6c1.667,0 3.292,0.084 4.875,0.25c1.583,0.167 2.875,0.417 3.875,0.75l-1.75,36Z" style="fill:#111827;fill-rule:nonzero;"/><path d="M1204.03,391.083c-1.833,-0.5 -3.625,-0.833 -5.375,-1c-1.75,-0.166 -3.458,-0.25 -5.125,-0.25c-5.5,0 -10.125,1 -13.875,3c-3.75,2 -6.75,4.417 -9,7.25c-2.25,2.834 -3.875,5.917 -4.875,9.25c-1,3.334 -1.5,6.25 -1.5,8.75l0,64l-41,0l0,-124.5l39.5,0l0,18l0.5,0c3.167,-6.333 7.667,-11.5 13.5,-15.5c5.833,-4 12.583,-6 20.25,-6c1.667,0 3.292,0.084 4.875,0.25c1.583,0.167 2.875,0.417 3.875,0.75l-1.75,36Z" style="fill:#111827;fill-rule:nonzero;"/><path d="M1303.53,405.583c0,-6.5 -2.042,-12.083 -6.125,-16.75c-4.083,-4.666 -10.208,-7 -18.375,-7c-4,0 -7.667,0.625 -11,1.875c-3.333,1.25 -6.25,2.959 -8.75,5.125c-2.5,2.167 -4.5,4.709 -6,7.625c-1.5,2.917 -2.333,5.959 -2.5,9.125l52.75,0Zm37.75,15.75l0,5c0,1.667 -0.083,3.25 -0.25,4.75l-90.25,0c0.333,3.5 1.375,6.667 3.125,9.5c1.75,2.834 4,5.292 6.75,7.375c2.75,2.084 5.833,3.709 9.25,4.875c3.417,1.167 6.958,1.75 10.625,1.75c6.5,0 12,-1.208 16.5,-3.625c4.5,-2.416 8.167,-5.541 11,-9.375l28.5,18c-5.833,8.5 -13.542,15.042 -23.125,19.625c-9.583,4.584 -20.708,6.875 -33.375,6.875c-9.333,0 -18.167,-1.458 -26.5,-4.375c-8.333,-2.916 -15.625,-7.166 -21.875,-12.75c-6.25,-5.583 -11.167,-12.458 -14.75,-20.625c-3.583,-8.166 -5.375,-17.5 -5.375,-28c0,-10.166 1.75,-19.375 5.25,-27.625c3.5,-8.25 8.25,-15.25 14.25,-21c6,-5.75 13.083,-10.208 21.25,-13.375c8.167,-3.166 17,-4.75 26.5,-4.75c9.167,0 17.583,1.542 25.25,4.625c7.667,3.084 14.25,7.542 19.75,13.375c5.5,5.834 9.792,12.917 12.875,21.25c3.083,8.334 4.625,17.834 4.625,28.5Z" style="fill:#111827;fill-rule:nonzero;"/><path d="M1450.78,484.083l-42.75,0l-67,-177l48,0l41,125.5l1,0l40.75,-125.5l47.25,0l-68.25,177Z" style="fill:#111827;fill-rule:nonzero;"/><path d="M1657.28,419.333c-0,10.167 -1.834,19.375 -5.5,27.625c-3.667,8.25 -8.667,15.25 -15,21c-6.334,5.75 -13.667,10.209 -22,13.375c-8.334,3.167 -17.25,4.75 -26.75,4.75c-9.334,0 -18.209,-1.583 -26.625,-4.75c-8.417,-3.166 -15.75,-7.625 -22,-13.375c-6.25,-5.75 -11.209,-12.75 -14.875,-21c-3.667,-8.25 -5.5,-17.458 -5.5,-27.625c-0,-10.166 1.833,-19.333 5.5,-27.5c3.666,-8.166 8.625,-15.083 14.875,-20.75c6.25,-5.666 13.583,-10 22,-13c8.416,-3 17.291,-4.5 26.625,-4.5c9.5,0 18.416,1.5 26.75,4.5c8.333,3 15.666,7.334 22,13c6.333,5.667 11.333,12.584 15,20.75c3.666,8.167 5.5,17.334 5.5,27.5Zm-39.5,0c-0,-4 -0.667,-7.916 -2,-11.75c-1.334,-3.833 -3.25,-7.208 -5.75,-10.125c-2.5,-2.916 -5.584,-5.291 -9.25,-7.125c-3.667,-1.833 -7.917,-2.75 -12.75,-2.75c-4.834,0 -9.084,0.917 -12.75,2.75c-3.667,1.834 -6.709,4.209 -9.125,7.125c-2.417,2.917 -4.25,6.292 -5.5,10.125c-1.25,3.834 -1.875,7.75 -1.875,11.75c-0,4 0.625,7.917 1.875,11.75c1.25,3.834 3.125,7.292 5.625,10.375c2.5,3.084 5.583,5.542 9.25,7.375c3.666,1.834 7.916,2.75 12.75,2.75c4.833,0 9.083,-0.916 12.75,-2.75c3.666,-1.833 6.75,-4.291 9.25,-7.375c2.5,-3.083 4.375,-6.541 5.625,-10.375c1.25,-3.833 1.875,-7.75 1.875,-11.75Z" style="fill:#111827;fill-rule:nonzero;"/><rect x="1669.36" y="295.083" width="41.5" height="189" style="fill:#111827;fill-rule:nonzero;"/><path d="M1782.93,389.333l0,47.5c0,5.834 1.125,10.209 3.375,13.125c2.25,2.917 6.292,4.375 12.125,4.375c2,0 4.125,-0.166 6.375,-0.5c2.25,-0.333 4.125,-0.833 5.625,-1.5l0.5,30c-2.833,1 -6.417,1.875 -10.75,2.625c-4.333,0.75 -8.667,1.125 -13,1.125c-8.333,0 -15.333,-1.041 -21,-3.125c-5.667,-2.083 -10.208,-5.083 -13.625,-9c-3.417,-3.916 -5.875,-8.583 -7.375,-14c-1.5,-5.416 -2.25,-11.458 -2.25,-18.125l0,-52.5l-20,0l0,-30.75l19.75,0l0,-32.75l40.25,0l0,32.75l29.25,0l0,30.75l-29.25,0Z" style="fill:#111827;fill-rule:nonzero;"/><path d="M2032.32,434.583c-0,9.667 -1.917,17.792 -5.75,24.375c-3.834,6.584 -8.917,11.875 -15.25,15.875c-6.334,4 -13.542,6.875 -21.625,8.625c-8.084,1.75 -16.375,2.625 -24.875,2.625l-70.5,0l-0,-177l70.5,0c6.833,0 13.833,0.709 21,2.125c7.166,1.417 13.666,3.834 19.5,7.25c5.833,3.417 10.583,8.042 14.25,13.875c3.666,5.834 5.5,13.25 5.5,22.25c-0,9.834 -2.667,17.959 -8,24.375c-5.334,6.417 -12.334,11.042 -21,13.875l-0,0.5c5,0.834 9.708,2.375 14.125,4.625c4.416,2.25 8.25,5.125 11.5,8.625c3.25,3.5 5.833,7.584 7.75,12.25c1.916,4.667 2.875,9.917 2.875,15.75Zm-48.5,-74.25c-0,-6 -2.292,-10.375 -6.875,-13.125c-4.584,-2.75 -11.375,-4.125 -20.375,-4.125l-21,0l-0,36.5l23,0c8,0 14.208,-1.625 18.625,-4.875c4.416,-3.25 6.625,-8.041 6.625,-14.375Zm5.75,70.25c-0,-7.333 -2.75,-12.416 -8.25,-15.25c-5.5,-2.833 -12.834,-4.25 -22,-4.25l-23.75,0l-0,40.5l24,0c3.333,0 6.791,-0.291 10.375,-0.875c3.583,-0.583 6.833,-1.625 9.75,-3.125c2.916,-1.5 5.291,-3.625 7.125,-6.375c1.833,-2.75 2.75,-6.291 2.75,-10.625Z" style="fill:#111827;fill-rule:nonzero;"/><path d="M2154.15,492.225l-42.75,-0l-67,-177l48,-0l41,125.5l1,-0l40.75,-125.5l47.25,-0l-68.25,177Z" style="fill:#111827;fill-rule:nonzero;"/></g><path d="M247.389,424.218c-4.675,4.801 -6.021,11.935 -3.416,18.109c2.605,6.174 8.655,10.187 15.356,10.187l149.668,-0c0,-0 -38.476,128.231 -38.476,128.231c-2.204,7.349 0.892,15.253 7.501,19.148c6.609,3.896 15.024,2.777 20.385,-2.711l212.043,-217.053c4.686,-4.797 6.041,-11.934 3.438,-18.114c-2.602,-6.181 -8.655,-10.199 -15.36,-10.199l-154.649,-0c0,-0 31.093,-116.541 31.093,-116.541c1.954,-7.325 -1.281,-15.046 -7.874,-18.789c-6.592,-3.744 -14.88,-2.567 -20.169,2.864l-199.54,204.868Zm51.438,-5.037l127.507,-130.912c-0,-0 -20.254,75.917 -20.254,75.917c-1.335,5.003 -0.269,10.343 2.886,14.449c3.155,4.107 8.039,6.514 13.217,6.514l136.763,0c0,0 -137.018,140.255 -137.018,140.255c-0,0.001 25.434,-84.767 25.434,-84.767c1.515,-5.046 0.554,-10.511 -2.591,-14.738c-3.145,-4.227 -8.104,-6.718 -13.372,-6.718l-132.572,-0Z" style="fill:#16a249;"/><g><path d="M578.666,618.39l-0,-132.307l-0,132.307" style="fill:none;fill-rule:nonzero;stroke:#e7b008;stroke-width:15.59px;"/><path d="M522.584,537.553l111.792,-0l-111.792,-0" style="fill:none;fill-rule:nonzero;stroke:#e7b008;stroke-width:13.33px;"/><path d="M539.302,566.982l79.634,-0l-79.634,-0" style="fill:none;fill-rule:nonzero;stroke:#e7b008;stroke-width:12.95px;"/><path d="M554.89,598.349l47.471,-0l-47.471,-0" style="fill:none;fill-rule:nonzero;stroke:#e7b008;stroke-width:12.71px;"/></g></svg>